<?xml version="1.0" encoding="utf-8"?>
<!-- Generator: Adobe Illustrator 27.0.0, SVG Export Plug-In . SVG Version: 6.00 Build 0)  -->
<svg version="1.1" xmlns="http://www.w3.org/2000/svg" xmlns:xlink="http://www.w3.org/1999/xlink" x="0px" y="0px"
	 viewBox="0 0 170.2 160.1" style="enable-background:new 0 0 170.2 160.1;" xml:space="preserve">
<style type="text/css">
	.st0{fill:#FAF4DA;stroke:#307A3C;stroke-width:3;stroke-linecap:round;stroke-linejoin:round;}
	.st1{fill:#FAF4DA;}
</style>
<g id="Layer_1">
</g>
<g id="Layer_1_copy">
	<g>
		<path class="st0" d="M104.7,57.6c1.7,1.8,3.8,3.2,6.1,4.1s4.8,1.5,7.5,1.5c1.2,0,2.4-0.2,3.6-0.5s2.3-0.7,3.5-1.2s2.2-1.1,3.2-1.9
			c1-0.7,2-1.5,2.9-2.3l3.7,5.2h2.3V9.9h-9.7v17.6c-0.5-0.8-1.1-1.4-1.9-1.9c-0.8-0.5-1.6-0.9-2.4-1.2s-1.7-0.5-2.6-0.7
			s-1.8-0.2-2.6-0.2c-2.6,0-5.1,0.5-7.5,1.5c-2.3,1-4.4,2.4-6.1,4.2c-1.7,1.8-3.1,3.9-4.1,6.3c-1,2.4-1.5,5.1-1.5,7.9
			c0,2.9,0.5,5.5,1.5,7.9S102.9,55.9,104.7,57.6z M109.5,39.1c0.5-1.3,1.2-2.3,2-3.2s1.9-1.6,3-2c1.2-0.5,2.4-0.7,3.7-0.7
			s2.5,0.3,3.7,0.9c1.2,0.6,2.2,1.3,3,2.3s1.6,2,2.1,3.3s0.8,2.5,0.8,3.8c0,1.3-0.3,2.6-0.8,3.8s-1.2,2.3-2.1,3.3s-1.9,1.7-3,2.3
			c-1.2,0.6-2.4,0.9-3.7,0.9s-2.5-0.3-3.7-0.8c-1.2-0.5-2.2-1.3-3-2.2c-0.9-0.9-1.5-2-2-3.3c-0.5-1.2-0.7-2.6-0.7-3.9
			C108.8,41.8,109,40.4,109.5,39.1z"/>
		<path class="st0" d="M96.8,79.4c0.9,0.4,1.6,0.9,2.3,1.5c0.7,0.7,1.2,1.4,1.5,2.3c0.4,0.9,0.6,1.8,0.6,2.8v21.5h9.6V86
			c0-2.3-0.4-4.5-1.3-6.6c-0.9-2.1-2.1-3.8-3.6-5.4c-1.5-1.5-3.3-2.7-5.3-3.6s-4.2-1.3-6.5-1.3c-2.1,0-4.2,0.4-6.1,1.1
			c-2,0.8-3.7,1.8-5.3,3.3l-3.2-3.7h-2.3v37.7h9.6V86c0-1,0.2-1.9,0.6-2.8c0.4-0.9,0.9-1.6,1.5-2.3c0.7-0.7,1.4-1.2,2.3-1.5
			c0.9-0.4,1.8-0.6,2.8-0.6C95,78.8,95.9,79,96.8,79.4z"/>
		<path class="st0" d="M65,57.6c1.7,1.8,3.8,3.2,6.1,4.1c2.3,1,4.8,1.5,7.5,1.5c1.2,0,2.4-0.2,3.6-0.5s2.3-0.7,3.5-1.2
			s2.2-1.1,3.2-1.9c1-0.7,2-1.5,2.9-2.3l3.7,5.2h2.3V9.9h-9.7v17.6c-0.5-0.8-1.1-1.4-1.9-1.9c-0.8-0.5-1.6-0.9-2.4-1.2
			s-1.7-0.5-2.6-0.7s-1.8-0.2-2.6-0.2c-2.6,0-5.1,0.5-7.5,1.5c-2.3,1-4.4,2.4-6.1,4.2c-1.7,1.8-3.1,3.9-4.1,6.3
			c-1,2.4-1.5,5.1-1.5,7.9c0,2.9,0.5,5.5,1.5,7.9C61.8,53.8,63.2,55.9,65,57.6z M69.8,39.1c0.5-1.3,1.2-2.3,2-3.2
			c0.9-0.9,1.9-1.6,3-2c1.2-0.5,2.4-0.7,3.7-0.7c1.3,0,2.5,0.3,3.7,0.9c1.2,0.6,2.2,1.3,3,2.3s1.6,2,2.1,3.3s0.8,2.5,0.8,3.8
			c0,1.3-0.3,2.6-0.8,3.8s-1.2,2.3-2.1,3.3s-1.9,1.7-3,2.3c-1.2,0.6-2.4,0.9-3.7,0.9c-1.3,0-2.5-0.3-3.7-0.8c-1.2-0.5-2.2-1.3-3-2.2
			c-0.9-0.9-1.5-2-2-3.3c-0.5-1.2-0.7-2.6-0.7-3.9C69.1,41.8,69.3,40.4,69.8,39.1z"/>
		<path class="st0" d="M86.3,117.4c-1.1-1.9-2.5-3.7-4.1-5.3c-1.6-1.6-3.4-3-5.3-4.1c-1.9-1.1-4-2-6.2-2.6c-2.2-0.6-4.4-0.9-6.7-0.9
			c1-0.8,2-1.6,2.9-2.5c1.6-1.6,3-3.4,4.1-5.3s2-4,2.6-6.2c0.6-2.2,0.9-4.5,0.9-6.9s-0.3-4.7-0.9-6.9c-0.6-2.2-1.5-4.3-2.6-6.2
			c-1.1-1.9-2.5-3.7-4.1-5.3c-1.6-1.6-3.4-3-5.3-4.1c-1.9-1.1-4-2-6.2-2.6c-1.9-0.5-3.9-0.8-5.9-0.9c0.6-0.5,1.1-1,1.7-1.5
			c1.6-1.6,3-3.4,4.1-5.3s2-4,2.6-6.2c0.6-2.2,0.9-4.5,0.9-6.9s-0.3-4.7-0.9-6.9c-0.6-2.2-1.5-4.3-2.6-6.2c-1.1-1.9-2.5-3.7-4.1-5.3
			c-1.6-1.6-3.4-3-5.3-4.1c-1.9-1.1-4-2-6.2-2.6c-2.2-0.6-4.5-0.9-6.9-0.9s-4.7,0.3-6.9,0.9c-2.2,0.6-4.3,1.5-6.2,2.6
			s-3.7,2.5-5.3,4.1c-1.6,1.6-3,3.4-4.1,5.3c-1.1,1.9-2,4-2.6,6.2c-0.6,2.2-0.9,4.5-0.9,6.9s0.3,4.7,0.9,6.9
			c0.6,2.2,1.5,4.3,2.6,6.2c1.1,1.9,2.5,3.7,4.1,5.3c1.6,1.6,3.4,3,5.3,4.1c1.9,1.1,4,2,6.2,2.6c1.9,0.5,3.9,0.8,5.9,0.9
			c-0.6,0.5-1.1,1-1.6,1.5c-1.6,1.6-3,3.4-4.1,5.3c-1.1,1.9-2,4-2.6,6.2c-0.6,2.2-0.9,4.5-0.9,6.9s0.3,4.7,0.9,6.9
			c0.6,2.2,1.5,4.3,2.6,6.2c1.1,1.9,2.5,3.7,4.1,5.3c1.6,1.6,3.4,3,5.3,4.1c1.9,1.1,4,2,6.2,2.6c2.1,0.6,4.4,0.9,6.7,0.9
			c-1,0.8-2,1.6-2.9,2.5c-1.6,1.6-3,3.4-4.1,5.3c-1.1,1.9-2,4-2.6,6.2c-0.6,2.2-0.9,4.5-0.9,6.9s0.3,4.7,0.9,6.9
			c0.6,2.2,1.5,4.3,2.6,6.2c1.1,1.9,2.5,3.7,4.1,5.3c1.6,1.6,3.4,3,5.3,4.1c1.9,1.1,4,2,6.2,2.6s4.5,0.9,6.9,0.9
			c2.4,0,4.7-0.3,6.9-0.9C73,155,75,154.2,77,153c1.9-1.1,3.7-2.5,5.3-4.1c1.6-1.6,3-3.4,4.1-5.3s2-4,2.6-6.2
			c0.6-2.2,0.9-4.5,0.9-6.9s-0.3-4.7-0.9-6.9C88.3,121.4,87.4,119.3,86.3,117.4z M26.5,52.3c-1.9-0.8-3.6-2-5.1-3.4
			c-1.5-1.5-2.6-3.1-3.4-5.1s-1.3-4-1.3-6.2c0-2.2,0.4-4.3,1.3-6.2c0.8-2,2-3.7,3.4-5.1c1.5-1.4,3.2-2.6,5.1-3.4
			c1.9-0.8,4-1.3,6.3-1.3c2.2,0,4.3,0.4,6.2,1.3c2,0.8,3.7,2,5.1,3.4s2.6,3.1,3.4,5.1c0.8,2,1.3,4,1.3,6.2c0,2.2-0.4,4.3-1.3,6.2
			s-2,3.6-3.4,5.1c-1.4,1.5-3.1,2.6-5.1,3.4c-2,0.8-4,1.3-6.2,1.3C30.5,53.6,28.4,53.1,26.5,52.3z M42.3,98.3
			c-1.9-0.8-3.6-2-5.1-3.4c-1.5-1.5-2.6-3.1-3.4-5.1s-1.3-4-1.3-6.2c0-2.2,0.4-4.3,1.3-6.2c0.8-2,2-3.7,3.4-5.1
			c1.5-1.4,3.2-2.6,5.1-3.4c1.9-0.8,4-1.3,6.3-1.3c2.2,0,4.3,0.4,6.2,1.3c2,0.8,3.7,2,5.1,3.4s2.6,3.1,3.4,5.1c0.8,2,1.3,4,1.3,6.2
			c0,2.2-0.4,4.3-1.3,6.2c-0.8,1.9-2,3.6-3.4,5.1c-1.4,1.5-3.1,2.6-5.1,3.4c-2,0.8-4,1.3-6.2,1.3C46.3,99.5,44.2,99.1,42.3,98.3z
			 M78.6,136.7c-0.8,1.9-2,3.6-3.4,5.1c-1.4,1.5-3.1,2.6-5.1,3.4c-2,0.8-4,1.3-6.2,1.3c-2.2,0-4.3-0.4-6.3-1.3
			c-1.9-0.8-3.6-2-5.1-3.4c-1.5-1.5-2.6-3.1-3.4-5.1s-1.3-4-1.3-6.2c0-2.2,0.4-4.3,1.3-6.2c0.8-2,2-3.7,3.4-5.1
			c1.5-1.4,3.2-2.6,5.1-3.4c1.9-0.8,4-1.3,6.3-1.3c2.2,0,4.3,0.4,6.2,1.3c2,0.8,3.7,2,5.1,3.4s2.6,3.1,3.4,5.1c0.8,2,1.3,4,1.3,6.2
			C79.8,132.7,79.4,134.8,78.6,136.7z"/>
		<path class="st0" d="M154.1,127.5v-9.6h-14.6v-11.8c0.1,0,0.1-0.1,0.2-0.1c1.3-0.7,2.6-1.6,3.8-2.6c1.2-1,2.2-2.1,3.1-3.4l-7-7.1
			c-0.4,0.8-0.9,1.6-1.5,2.3c-0.6,0.7-1.3,1.3-2,1.8c-0.8,0.5-1.6,0.8-2.4,1.1c-0.9,0.3-1.8,0.4-2.7,0.4c-0.4,0-0.8,0-1.1-0.1
			c-0.4,0-0.8-0.1-1.1-0.2l18-21.7c-0.9-1.3-1.9-2.4-3.1-3.4c-1.2-1-2.4-1.9-3.8-2.6c-1.3-0.7-2.8-1.2-4.3-1.6
			c-1.5-0.4-3-0.6-4.6-0.6c-2.6,0-5.1,0.5-7.5,1.4c-2.3,1-4.4,2.3-6.1,4c-1.7,1.7-3.1,3.8-4.1,6.3c-1,2.5-1.5,5.2-1.5,8.2
			c0,2.9,0.5,5.6,1.5,8c1,2.4,2.4,4.5,4.1,6.3c1.7,1.8,3.8,3.1,6.1,4.1c2.1,0.9,4.3,1.3,6.6,1.4v9.7h-4.4v-0.1H116v20.8
			c0,1-0.2,2-0.6,2.9c-0.4,0.9-0.9,1.8-1.5,2.5c-0.7,0.8-1.4,1.4-2.3,1.8s-1.8,0.7-2.8,0.7c-1,0-2-0.2-2.8-0.5s-1.6-0.9-2.3-1.5
			c-0.7-0.7-1.2-1.5-1.6-2.5c-0.4-1-0.6-2.1-0.6-3.4v-20.8H92v20.8c0,2.7,0.4,5.1,1.3,7.3c0.9,2.2,2.1,4,3.6,5.5
			c1.5,1.5,3.3,2.7,5.4,3.5s4.2,1.2,6.5,1.2c1.1,0,2.1-0.1,3.1-0.4c1-0.3,2-0.6,3-1.1c1-0.5,1.9-1,2.8-1.6c0.9-0.6,1.7-1.3,2.5-2
			l3.2,4.4h2.3v-28h4.4v11.2c0,2.3,0.4,4.5,1.3,6.5s2.1,3.8,3.6,5.4c1.5,1.5,3.3,2.7,5.4,3.6s4.2,1.3,6.5,1.3h7.3v-9.6h-7.3
			c-1,0-2-0.2-2.8-0.6c-0.9-0.4-1.7-0.9-2.3-1.6c-0.7-0.7-1.2-1.4-1.5-2.3c-0.4-0.9-0.6-1.8-0.6-2.8v-11.2H154.1z M122.3,93.3
			c-0.2-0.3-0.3-0.7-0.5-1.1c-0.1-0.4-0.2-0.9-0.3-1.3c-0.1-0.5-0.1-0.9-0.2-1.4c0-0.4-0.1-0.8-0.1-1.2c0-1.6,0.2-3,0.7-4.2
			c0.5-1.3,1.2-2.3,2-3.2c0.9-0.9,1.9-1.6,3-2.1c1.2-0.5,2.4-0.7,3.7-0.7c0.5,0,0.9,0,1.4,0.1c0.4,0,0.9,0.2,1.3,0.3L122.3,93.3z"/>
	</g>
</g>
<g id="Layer_1_copy_2">
	<g>
		<path class="st1" d="M104.7,57.6c1.7,1.8,3.8,3.2,6.1,4.1s4.8,1.5,7.5,1.5c1.2,0,2.4-0.2,3.6-0.5s2.3-0.7,3.5-1.2s2.2-1.1,3.2-1.9
			c1-0.7,2-1.5,2.9-2.3l3.7,5.2h2.3V9.9h-9.7v17.6c-0.5-0.8-1.1-1.4-1.9-1.9c-0.8-0.5-1.6-0.9-2.4-1.2s-1.7-0.5-2.6-0.7
			s-1.8-0.2-2.6-0.2c-2.6,0-5.1,0.5-7.5,1.5c-2.3,1-4.4,2.4-6.1,4.2c-1.7,1.8-3.1,3.9-4.1,6.3c-1,2.4-1.5,5.1-1.5,7.9
			c0,2.9,0.5,5.5,1.5,7.9S102.9,55.9,104.7,57.6z M109.5,39.1c0.5-1.3,1.2-2.3,2-3.2s1.9-1.6,3-2c1.2-0.5,2.4-0.7,3.7-0.7
			s2.5,0.3,3.7,0.9c1.2,0.6,2.2,1.3,3,2.3s1.6,2,2.1,3.3s0.8,2.5,0.8,3.8c0,1.3-0.3,2.6-0.8,3.8s-1.2,2.3-2.1,3.3s-1.9,1.7-3,2.3
			c-1.2,0.6-2.4,0.9-3.7,0.9s-2.5-0.3-3.7-0.8c-1.2-0.5-2.2-1.3-3-2.2c-0.9-0.9-1.5-2-2-3.3c-0.5-1.2-0.7-2.6-0.7-3.9
			C108.8,41.8,109,40.4,109.5,39.1z"/>
		<path class="st1" d="M96.8,79.4c0.9,0.4,1.6,0.9,2.3,1.5c0.7,0.7,1.2,1.4,1.5,2.3c0.4,0.9,0.6,1.8,0.6,2.8v21.5h9.6V86
			c0-2.3-0.4-4.5-1.3-6.6c-0.9-2.1-2.1-3.8-3.6-5.4c-1.5-1.5-3.3-2.7-5.3-3.6s-4.2-1.3-6.5-1.3c-2.1,0-4.2,0.4-6.1,1.1
			c-2,0.8-3.7,1.8-5.3,3.3l-3.2-3.7h-2.3v37.7h9.6V86c0-1,0.2-1.9,0.6-2.8c0.4-0.9,0.9-1.6,1.5-2.3c0.7-0.7,1.4-1.2,2.3-1.5
			c0.9-0.4,1.8-0.6,2.8-0.6C95,78.8,95.9,79,96.8,79.4z"/>
		<path class="st1" d="M65,57.6c1.7,1.8,3.8,3.2,6.1,4.1c2.3,1,4.8,1.5,7.5,1.5c1.2,0,2.4-0.2,3.6-0.5s2.3-0.7,3.5-1.2
			s2.2-1.1,3.2-1.9c1-0.7,2-1.5,2.9-2.3l3.7,5.2h2.3V9.9h-9.7v17.6c-0.5-0.8-1.1-1.4-1.9-1.9c-0.8-0.5-1.6-0.9-2.4-1.2
			s-1.7-0.5-2.6-0.7s-1.8-0.2-2.6-0.2c-2.6,0-5.1,0.5-7.5,1.5c-2.3,1-4.4,2.4-6.1,4.2c-1.7,1.8-3.1,3.9-4.1,6.3
			c-1,2.4-1.5,5.1-1.5,7.9c0,2.9,0.5,5.5,1.5,7.9C61.8,53.8,63.2,55.9,65,57.6z M69.8,39.1c0.5-1.3,1.2-2.3,2-3.2
			c0.9-0.9,1.9-1.6,3-2c1.2-0.5,2.4-0.7,3.7-0.7c1.3,0,2.5,0.3,3.7,0.9c1.2,0.6,2.2,1.3,3,2.3s1.6,2,2.1,3.3s0.8,2.5,0.8,3.8
			c0,1.3-0.3,2.6-0.8,3.8s-1.2,2.3-2.1,3.3s-1.9,1.7-3,2.3c-1.2,0.6-2.4,0.9-3.7,0.9c-1.3,0-2.5-0.3-3.7-0.8c-1.2-0.5-2.2-1.3-3-2.2
			c-0.9-0.9-1.5-2-2-3.3c-0.5-1.2-0.7-2.6-0.7-3.9C69.1,41.8,69.3,40.4,69.8,39.1z"/>
		<path class="st1" d="M86.3,117.4c-1.1-1.9-2.5-3.7-4.1-5.3c-1.6-1.6-3.4-3-5.3-4.1c-1.9-1.1-4-2-6.2-2.6c-2.2-0.6-4.4-0.9-6.7-0.9
			c1-0.8,2-1.6,2.9-2.5c1.6-1.6,3-3.4,4.1-5.3s2-4,2.6-6.2c0.6-2.2,0.9-4.5,0.9-6.9s-0.3-4.7-0.9-6.9c-0.6-2.2-1.5-4.3-2.6-6.2
			c-1.1-1.9-2.5-3.7-4.1-5.3c-1.6-1.6-3.4-3-5.3-4.1c-1.9-1.1-4-2-6.2-2.6c-1.9-0.5-3.9-0.8-5.9-0.9c0.6-0.5,1.1-1,1.7-1.5
			c1.6-1.6,3-3.4,4.1-5.3s2-4,2.6-6.2c0.6-2.2,0.9-4.5,0.9-6.9s-0.3-4.7-0.9-6.9c-0.6-2.2-1.5-4.3-2.6-6.2c-1.1-1.9-2.5-3.7-4.1-5.3
			c-1.6-1.6-3.4-3-5.3-4.1c-1.9-1.1-4-2-6.2-2.6c-2.2-0.6-4.5-0.9-6.9-0.9s-4.7,0.3-6.9,0.9c-2.2,0.6-4.3,1.5-6.2,2.6
			s-3.7,2.5-5.3,4.1c-1.6,1.6-3,3.4-4.1,5.3c-1.1,1.9-2,4-2.6,6.2c-0.6,2.2-0.9,4.5-0.9,6.9s0.3,4.7,0.9,6.9
			c0.6,2.2,1.5,4.3,2.6,6.2c1.1,1.9,2.5,3.7,4.1,5.3c1.6,1.6,3.4,3,5.3,4.1c1.9,1.1,4,2,6.2,2.6c1.9,0.5,3.9,0.8,5.9,0.9
			c-0.6,0.5-1.1,1-1.6,1.5c-1.6,1.6-3,3.4-4.1,5.3c-1.1,1.9-2,4-2.6,6.2c-0.6,2.2-0.9,4.5-0.9,6.9s0.3,4.7,0.9,6.9
			c0.6,2.2,1.5,4.3,2.6,6.2c1.1,1.9,2.5,3.7,4.1,5.3c1.6,1.6,3.4,3,5.3,4.1c1.9,1.1,4,2,6.2,2.6c2.1,0.6,4.4,0.9,6.7,0.9
			c-1,0.8-2,1.6-2.9,2.5c-1.6,1.6-3,3.4-4.1,5.3c-1.1,1.9-2,4-2.6,6.2c-0.6,2.2-0.9,4.5-0.9,6.9s0.3,4.7,0.9,6.9
			c0.6,2.2,1.5,4.3,2.6,6.2c1.1,1.9,2.5,3.7,4.1,5.3c1.6,1.6,3.4,3,5.3,4.1c1.9,1.1,4,2,6.2,2.6s4.5,0.9,6.9,0.9
			c2.4,0,4.7-0.3,6.9-0.9C73,155,75,154.2,77,153c1.9-1.1,3.7-2.5,5.3-4.1c1.6-1.6,3-3.4,4.1-5.3s2-4,2.6-6.2
			c0.6-2.2,0.9-4.5,0.9-6.9s-0.3-4.7-0.9-6.9C88.3,121.4,87.4,119.3,86.3,117.4z M26.5,52.3c-1.9-0.8-3.6-2-5.1-3.4
			c-1.5-1.5-2.6-3.1-3.4-5.1s-1.3-4-1.3-6.2c0-2.2,0.4-4.3,1.3-6.2c0.8-2,2-3.7,3.4-5.1c1.5-1.4,3.2-2.6,5.1-3.4
			c1.9-0.8,4-1.3,6.3-1.3c2.2,0,4.3,0.4,6.2,1.3c2,0.8,3.7,2,5.1,3.4s2.6,3.1,3.4,5.1c0.8,2,1.3,4,1.3,6.2c0,2.2-0.4,4.3-1.3,6.2
			s-2,3.6-3.4,5.1c-1.4,1.5-3.1,2.6-5.1,3.4c-2,0.8-4,1.3-6.2,1.3C30.5,53.6,28.4,53.1,26.5,52.3z M42.3,98.3
			c-1.9-0.8-3.6-2-5.1-3.4c-1.5-1.5-2.6-3.1-3.4-5.1s-1.3-4-1.3-6.2c0-2.2,0.4-4.3,1.3-6.2c0.8-2,2-3.7,3.4-5.1
			c1.5-1.4,3.2-2.6,5.1-3.4c1.9-0.8,4-1.3,6.3-1.3c2.2,0,4.3,0.4,6.2,1.3c2,0.8,3.7,2,5.1,3.4s2.6,3.1,3.4,5.1c0.8,2,1.3,4,1.3,6.2
			c0,2.2-0.4,4.3-1.3,6.2c-0.8,1.9-2,3.6-3.4,5.1c-1.4,1.5-3.1,2.6-5.1,3.4c-2,0.8-4,1.3-6.2,1.3C46.3,99.5,44.2,99.1,42.3,98.3z
			 M78.6,136.7c-0.8,1.9-2,3.6-3.4,5.1c-1.4,1.5-3.1,2.6-5.1,3.4c-2,0.8-4,1.3-6.2,1.3c-2.2,0-4.3-0.4-6.3-1.3
			c-1.9-0.8-3.6-2-5.1-3.4c-1.5-1.5-2.6-3.1-3.4-5.1s-1.3-4-1.3-6.2c0-2.2,0.4-4.3,1.3-6.2c0.8-2,2-3.7,3.4-5.1
			c1.5-1.4,3.2-2.6,5.1-3.4c1.9-0.8,4-1.3,6.3-1.3c2.2,0,4.3,0.4,6.2,1.3c2,0.8,3.7,2,5.1,3.4s2.6,3.1,3.4,5.1c0.8,2,1.3,4,1.3,6.2
			C79.8,132.7,79.4,134.8,78.6,136.7z"/>
		<path class="st1" d="M154.1,127.5v-9.6h-14.6v-11.8c0.1,0,0.1-0.1,0.2-0.1c1.3-0.7,2.6-1.6,3.8-2.6c1.2-1,2.2-2.1,3.1-3.4l-7-7.1
			c-0.4,0.8-0.9,1.6-1.5,2.3c-0.6,0.7-1.3,1.3-2,1.8c-0.8,0.5-1.6,0.8-2.4,1.1c-0.9,0.3-1.8,0.4-2.7,0.4c-0.4,0-0.8,0-1.1-0.1
			c-0.4,0-0.8-0.1-1.1-0.2l18-21.7c-0.9-1.3-1.9-2.4-3.1-3.4c-1.2-1-2.4-1.9-3.8-2.6c-1.3-0.7-2.8-1.2-4.3-1.6
			c-1.5-0.4-3-0.6-4.6-0.6c-2.6,0-5.1,0.5-7.5,1.4c-2.3,1-4.4,2.3-6.1,4c-1.7,1.7-3.1,3.8-4.1,6.3c-1,2.5-1.5,5.2-1.5,8.2
			c0,2.9,0.5,5.6,1.5,8c1,2.4,2.4,4.5,4.1,6.3c1.7,1.8,3.8,3.1,6.1,4.1c2.1,0.9,4.3,1.3,6.6,1.4v9.7h-4.4v-0.1H116v20.8
			c0,1-0.2,2-0.6,2.9c-0.4,0.9-0.9,1.8-1.5,2.5c-0.7,0.8-1.4,1.4-2.3,1.8s-1.8,0.7-2.8,0.7c-1,0-2-0.2-2.8-0.5s-1.6-0.9-2.3-1.5
			c-0.7-0.7-1.2-1.5-1.6-2.5c-0.4-1-0.6-2.1-0.6-3.4v-20.8H92v20.8c0,2.7,0.4,5.1,1.3,7.3c0.9,2.2,2.1,4,3.6,5.5
			c1.5,1.5,3.3,2.7,5.4,3.5s4.2,1.2,6.5,1.2c1.1,0,2.1-0.1,3.1-0.4c1-0.3,2-0.6,3-1.1c1-0.5,1.9-1,2.8-1.6c0.9-0.6,1.7-1.3,2.5-2
			l3.2,4.4h2.3v-28h4.4v11.2c0,2.3,0.4,4.5,1.3,6.5s2.1,3.8,3.6,5.4c1.5,1.5,3.3,2.7,5.4,3.6s4.2,1.3,6.5,1.3h7.3v-9.6h-7.3
			c-1,0-2-0.2-2.8-0.6c-0.9-0.4-1.7-0.9-2.3-1.6c-0.7-0.7-1.2-1.4-1.5-2.3c-0.4-0.9-0.6-1.8-0.6-2.8v-11.2H154.1z M122.3,93.3
			c-0.2-0.3-0.3-0.7-0.5-1.1c-0.1-0.4-0.2-0.9-0.3-1.3c-0.1-0.5-0.1-0.9-0.2-1.4c0-0.4-0.1-0.8-0.1-1.2c0-1.6,0.2-3,0.7-4.2
			c0.5-1.3,1.2-2.3,2-3.2c0.9-0.9,1.9-1.6,3-2.1c1.2-0.5,2.4-0.7,3.7-0.7c0.5,0,0.9,0,1.4,0.1c0.4,0,0.9,0.2,1.3,0.3L122.3,93.3z"/>
	</g>
</g>
</svg>
